# xmcd
#
# Track frame offsets:
#	150
#	27179
#	50222
#	73767
#	97995
#	123058
#	147051
#	168889
#	186513
#	204346
#	220856
#	240674
#
# Disc length: 3475 seconds
#
# Revision: 1
# Processed by: cddbd v1.5.2PL0 Copyright (c) Steve Scherf et al.
# Submitted via: audiograbber 1.83.01
#
DISCID=a80d910c
DTITLE=Zoran Drvenkar - Eddies Lügengeschichten
DYEAR=2001
DGENRE=Kind
TTITLE0=1. Lügengeschichte 1
TTITLE1=1. Lügengeschichte 2
TTITLE2=1. Lügengeschichte 3
TTITLE3=1. Lügengeschichte 4
TTITLE4=1. Lügengeschichte 5
TTITLE5=2. Lügengeschichte 1
TTITLE6=2. Lügengeschichte 2
TTITLE7=2. Lügengeschichte 3
TTITLE8=2. Lügengeschichte 4
TTITLE9=2. Lügengeschichte 5
TTITLE10=2. Lügengeschichte 6
TTITLE11=2. Lügengeschichte 7
EXTD=
EXTT0=
EXTT1=
EXTT2=
EXTT3=
EXTT4=
EXTT5=
EXTT6=
EXTT7=
EXTT8=
EXTT9=
EXTT10=
EXTT11=
PLAYORDER=
